<svg xmlns="http://www.w3.org/2000/svg" xmlns:xlink="http://www.w3.org/1999/xlink" version="1.1" width="567.6172pt" height="340.59425pt" viewBox="0 0 567.6172 340.59425">
<defs>
<clipPath id="clip_0">
<path transform="matrix(1,0,0,-1,0,340.59425)" d="M94.85625 57.10625H541.2562V278.86625H94.85625Z"/>
</clipPath>
<clipPath id="clip_1">
<path transform="matrix(1,0,0,-1,0,340.59425)" d="M115.147159 57.10625H146.36394V248.55905H115.147159Z"/>
</clipPath>
<g id="pattern_tile_2">
<path transform="matrix(1,0,0,-1,0,0)" d="M0 0H72V72H0Z" fill="#d2691e" fill-opacity=".7"/>
<g>
<path transform="matrix(1,0,0,-1,0,0)" d="M-36 36 36-36M-30 42 42-30M-24 48 48-24M-18 54 54-18M-12 60 60-12M-6 66 66-6M0 72 72 0M6 78 78 6M12 84 84 12M18 90 90 18M24 96 96 24M30 102 102 30M36 108 108 36" fill="#d2691e" fill-opacity=".7"/>
<path transform="matrix(1,0,0,-1,0,0)" stroke-width="1" stroke-linecap="butt" stroke-miterlimit="10" stroke-linejoin="miter" fill="none" stroke="#000000" stroke-opacity=".7" d="M-36 36 36-36M-30 42 42-30M-24 48 48-24M-18 54 54-18M-12 60 60-12M-6 66 66-6M0 72 72 0M6 78 78 6M12 84 84 12M18 90 90 18M24 96 96 24M30 102 102 30M36 108 108 36"/>
</g>
</g>
<pattern id="pattern_2" patternUnits="userSpaceOnUse" patternContentUnits="userSpaceOnUse" x="0" y="0" width="72" height="72">
<g transform="matrix(1,0,0,-1,-0,0)">
<use x="0" y="0" xlink:href="#pattern_tile_2"/>
</g>
</pattern>
<clipPath id="clip_3">
<path transform="matrix(1,0,0,-1,0,340.59425)" d="M94.85625 57.10625H541.2562V278.86625H94.85625Z"/>
</clipPath>
<clipPath id="clip_4">
<path transform="matrix(1,0,0,-1,0,340.59425)" d="M271.23109 57.10625H302.44786V254.17697H271.23109Z"/>
</clipPath>
<g id="pattern_tile_5">
<path transform="matrix(1,0,0,-1,0,0)" d="M0 0H72V72H0Z" fill="#d2691e" fill-opacity=".7"/>
<g>
<path transform="matrix(1,0,0,-1,0,0)" d="M-36 36 36-36M-30 42 42-30M-24 48 48-24M-18 54 54-18M-12 60 60-12M-6 66 66-6M0 72 72 0M6 78 78 6M12 84 84 12M18 90 90 18M24 96 96 24M30 102 102 30M36 108 108 36" fill="#d2691e" fill-opacity=".7"/>
<path transform="matrix(1,0,0,-1,0,0)" stroke-width="1" stroke-linecap="butt" stroke-miterlimit="10" stroke-linejoin="miter" fill="none" stroke="#000000" stroke-opacity=".7" d="M-36 36 36-36M-30 42 42-30M-24 48 48-24M-18 54 54-18M-12 60 60-12M-6 66 66-6M0 72 72 0M6 78 78 6M12 84 84 12M18 90 90 18M24 96 96 24M30 102 102 30M36 108 108 36"/>
</g>
</g>
<pattern id="pattern_5" patternUnits="userSpaceOnUse" patternContentUnits="userSpaceOnUse" x="0" y="0" width="72" height="72">
<g transform="matrix(1,0,0,-1,-0,0)">
<use x="0" y="0" xlink:href="#pattern_tile_5"/>
</g>
</pattern>
<clipPath id="clip_6">
<path transform="matrix(1,0,0,-1,0,340.59425)" d="M94.85625 57.10625H541.2562V278.86625H94.85625Z"/>
</clipPath>
<clipPath id="clip_7">
<path transform="matrix(1,0,0,-1,0,340.59425)" d="M427.315 57.10625H458.53178V245.30657H427.315Z"/>
</clipPath>
<g id="pattern_tile_8">
<path transform="matrix(1,0,0,-1,0,0)" d="M0 0H72V72H0Z" fill="#d2691e" fill-opacity=".7"/>
<g>
<path transform="matrix(1,0,0,-1,0,0)" d="M-36 36 36-36M-30 42 42-30M-24 48 48-24M-18 54 54-18M-12 60 60-12M-6 66 66-6M0 72 72 0M6 78 78 6M12 84 84 12M18 90 90 18M24 96 96 24M30 102 102 30M36 108 108 36" fill="#d2691e" fill-opacity=".7"/>
<path transform="matrix(1,0,0,-1,0,0)" stroke-width="1" stroke-linecap="butt" stroke-miterlimit="10" stroke-linejoin="miter" fill="none" stroke="#000000" stroke-opacity=".7" d="M-36 36 36-36M-30 42 42-30M-24 48 48-24M-18 54 54-18M-12 60 60-12M-6 66 66-6M0 72 72 0M6 78 78 6M12 84 84 12M18 90 90 18M24 96 96 24M30 102 102 30M36 108 108 36"/>
</g>
</g>
<pattern id="pattern_8" patternUnits="userSpaceOnUse" patternContentUnits="userSpaceOnUse" x="0" y="0" width="72" height="72">
<g transform="matrix(1,0,0,-1,-0,0)">
<use x="0" y="0" xlink:href="#pattern_tile_8"/>
</g>
</pattern>
<clipPath id="clip_9">
<path transform="matrix(1,0,0,-1,0,340.59425)" d="M94.85625 57.10625H541.2562V278.86625H94.85625Z"/>
</clipPath>
<clipPath id="clip_10">
<path transform="matrix(1,0,0,-1,0,340.59425)" d="M146.36394 57.10625H177.58072V235.1056H146.36394Z"/>
</clipPath>
<g id="pattern_tile_11">
<path transform="matrix(1,0,0,-1,0,0)" d="M0 0H72V72H0Z" fill="#5f9ea0" fill-opacity=".7"/>
<g>
<path transform="matrix(1,0,0,-1,0,0)" d="M0 6H72M0 18H72M0 30H72M0 42H72M0 54H72M0 66H72" fill="#5f9ea0" fill-opacity=".7"/>
<path transform="matrix(1,0,0,-1,0,0)" stroke-width="1" stroke-linecap="butt" stroke-miterlimit="10" stroke-linejoin="miter" fill="none" stroke="#000000" stroke-opacity=".7" d="M0 6H72M0 18H72M0 30H72M0 42H72M0 54H72M0 66H72"/>
</g>
</g>
<pattern id="pattern_11" patternUnits="userSpaceOnUse" patternContentUnits="userSpaceOnUse" x="0" y="0" width="72" height="72">
<g transform="matrix(1,0,0,-1,-0,0)">
<use x="0" y="0" xlink:href="#pattern_tile_11"/>
</g>
</pattern>
<clipPath id="clip_12">
<path transform="matrix(1,0,0,-1,0,340.59425)" d="M94.85625 57.10625H541.2562V278.86625H94.85625Z"/>
</clipPath>
<clipPath id="clip_13">
<path transform="matrix(1,0,0,-1,0,340.59425)" d="M302.44786 57.10625H333.66465V238.06241H302.44786Z"/>
</clipPath>
<g id="pattern_tile_14">
<path transform="matrix(1,0,0,-1,0,0)" d="M0 0H72V72H0Z" fill="#5f9ea0" fill-opacity=".7"/>
<g>
<path transform="matrix(1,0,0,-1,0,0)" d="M0 6H72M0 18H72M0 30H72M0 42H72M0 54H72M0 66H72" fill="#5f9ea0" fill-opacity=".7"/>
<path transform="matrix(1,0,0,-1,0,0)" stroke-width="1" stroke-linecap="butt" stroke-miterlimit="10" stroke-linejoin="miter" fill="none" stroke="#000000" stroke-opacity=".7" d="M0 6H72M0 18H72M0 30H72M0 42H72M0 54H72M0 66H72"/>
</g>
</g>
<pattern id="pattern_14" patternUnits="userSpaceOnUse" patternContentUnits="userSpaceOnUse" x="0" y="0" width="72" height="72">
<g transform="matrix(1,0,0,-1,-0,0)">
<use x="0" y="0" xlink:href="#pattern_tile_14"/>
</g>
</pattern>
<clipPath id="clip_15">
<path transform="matrix(1,0,0,-1,0,340.59425)" d="M94.85625 57.10625H541.2562V278.86625H94.85625Z"/>
</clipPath>
<clipPath id="clip_16">
<path transform="matrix(1,0,0,-1,0,340.59425)" d="M458.53178 57.10625H489.74858V231.26177H458.53178Z"/>
</clipPath>
<g id="pattern_tile_17">
<path transform="matrix(1,0,0,-1,0,0)" d="M0 0H72V72H0Z" fill="#5f9ea0" fill-opacity=".7"/>
<g>
<path transform="matrix(1,0,0,-1,0,0)" d="M0 6H72M0 18H72M0 30H72M0 42H72M0 54H72M0 66H72" fill="#5f9ea0" fill-opacity=".7"/>
<path transform="matrix(1,0,0,-1,0,0)" stroke-width="1" stroke-linecap="butt" stroke-miterlimit="10" stroke-linejoin="miter" fill="none" stroke="#000000" stroke-opacity=".7" d="M0 6H72M0 18H72M0 30H72M0 42H72M0 54H72M0 66H72"/>
</g>
</g>
<pattern id="pattern_17" patternUnits="userSpaceOnUse" patternContentUnits="userSpaceOnUse" x="0" y="0" width="72" height="72">
<g transform="matrix(1,0,0,-1,-0,0)">
<use x="0" y="0" xlink:href="#pattern_tile_17"/>
</g>
</pattern>
<clipPath id="clip_18">
<path transform="matrix(1,0,0,-1,0,340.59425)" d="M94.85625 57.10625H541.2562V278.86625H94.85625Z"/>
</clipPath>
<clipPath id="clip_19">
<path transform="matrix(1,0,0,-1,0,340.59425)" d="M177.58072 57.10625H208.79752V204.0592H177.58072Z"/>
</clipPath>
<g id="pattern_tile_20">
<path transform="matrix(1,0,0,-1,0,0)" d="M0 0H72V72H0Z" fill="#f5deb3" fill-opacity=".7"/>
<g>
<path transform="matrix(1,0,0,-1,0,0)" d="M-36 36 36 108M-30 30 42 102M-24 24 48 96M-18 18 54 90M-12 12 60 84M-6 6 66 78M0 0 72 72M6-6 78 66M12-12 84 60M18-18 90 54M24-24 96 48M30-30 102 42M36-36 108 36" fill="#f5deb3" fill-opacity=".7"/>
<path transform="matrix(1,0,0,-1,0,0)" stroke-width="1" stroke-linecap="butt" stroke-miterlimit="10" stroke-linejoin="miter" fill="none" stroke="#000000" stroke-opacity=".7" d="M-36 36 36 108M-30 30 42 102M-24 24 48 96M-18 18 54 90M-12 12 60 84M-6 6 66 78M0 0 72 72M6-6 78 66M12-12 84 60M18-18 90 54M24-24 96 48M30-30 102 42M36-36 108 36"/>
</g>
</g>
<pattern id="pattern_20" patternUnits="userSpaceOnUse" patternContentUnits="userSpaceOnUse" x="0" y="0" width="72" height="72">
<g transform="matrix(1,0,0,-1,-0,0)">
<use x="0" y="0" xlink:href="#pattern_tile_20"/>
</g>
</pattern>
<clipPath id="clip_21">
<path transform="matrix(1,0,0,-1,0,340.59425)" d="M94.85625 57.10625H541.2562V278.86625H94.85625Z"/>
</clipPath>
<clipPath id="clip_22">
<path transform="matrix(1,0,0,-1,0,340.59425)" d="M333.66465 57.10625H364.88145V206.42465H333.66465Z"/>
</clipPath>
<g id="pattern_tile_23">
<path transform="matrix(1,0,0,-1,0,0)" d="M0 0H72V72H0Z" fill="#f5deb3" fill-opacity=".7"/>
<g>
<path transform="matrix(1,0,0,-1,0,0)" d="M-36 36 36 108M-30 30 42 102M-24 24 48 96M-18 18 54 90M-12 12 60 84M-6 6 66 78M0 0 72 72M6-6 78 66M12-12 84 60M18-18 90 54M24-24 96 48M30-30 102 42M36-36 108 36" fill="#f5deb3" fill-opacity=".7"/>
<path transform="matrix(1,0,0,-1,0,0)" stroke-width="1" stroke-linecap="butt" stroke-miterlimit="10" stroke-linejoin="miter" fill="none" stroke="#000000" stroke-opacity=".7" d="M-36 36 36 108M-30 30 42 102M-24 24 48 96M-18 18 54 90M-12 12 60 84M-6 6 66 78M0 0 72 72M6-6 78 66M12-12 84 60M18-18 90 54M24-24 96 48M30-30 102 42M36-36 108 36"/>
</g>
</g>
<pattern id="pattern_23" patternUnits="userSpaceOnUse" patternContentUnits="userSpaceOnUse" x="0" y="0" width="72" height="72">
<g transform="matrix(1,0,0,-1,-0,0)">
<use x="0" y="0" xlink:href="#pattern_tile_23"/>
</g>
</pattern>
<clipPath id="clip_24">
<path transform="matrix(1,0,0,-1,0,340.59425)" d="M94.85625 57.10625H541.2562V278.86625H94.85625Z"/>
</clipPath>
<clipPath id="clip_25">
<path transform="matrix(1,0,0,-1,0,340.59425)" d="M489.74858 57.10625H520.96536V199.62401H489.74858Z"/>
</clipPath>
<g id="pattern_tile_26">
<path transform="matrix(1,0,0,-1,0,0)" d="M0 0H72V72H0Z" fill="#f5deb3" fill-opacity=".7"/>
<g>
<path transform="matrix(1,0,0,-1,0,0)" d="M-36 36 36 108M-30 30 42 102M-24 24 48 96M-18 18 54 90M-12 12 60 84M-6 6 66 78M0 0 72 72M6-6 78 66M12-12 84 60M18-18 90 54M24-24 96 48M30-30 102 42M36-36 108 36" fill="#f5deb3" fill-opacity=".7"/>
<path transform="matrix(1,0,0,-1,0,0)" stroke-width="1" stroke-linecap="butt" stroke-miterlimit="10" stroke-linejoin="miter" fill="none" stroke="#000000" stroke-opacity=".7" d="M-36 36 36 108M-30 30 42 102M-24 24 48 96M-18 18 54 90M-12 12 60 84M-6 6 66 78M0 0 72 72M6-6 78 66M12-12 84 60M18-18 90 54M24-24 96 48M30-30 102 42M36-36 108 36"/>
</g>
</g>
<pattern id="pattern_26" patternUnits="userSpaceOnUse" patternContentUnits="userSpaceOnUse" x="0" y="0" width="72" height="72">
<g transform="matrix(1,0,0,-1,-0,0)">
<use x="0" y="0" xlink:href="#pattern_tile_26"/>
</g>
</pattern>
<path id="font_27_7" d="M.19189453 .08300781H.5361328V0H.07324219V.08300781C.110677089 .12174479 .16170247 .17374675 .22631836 .23901367 .29093424 .3042806 .33154298 .34635417 .34814454 .36523438 .37972007 .40071617 .40177409 .43074546 .41430665 .45532228 .4268392 .47989909 .43310548 .50406906 .43310548 .52783206 .43310548 .56656906 .41951499 .59814456 .39233399 .6225586 .36515299 .64697268 .3297526 .6591797 .2861328 .6591797 .25520835 .6591797 .22257488 .6537679 .18823242 .64294436 .15388997 .6321208 .1171875 .61572268 .078125 .59375V.6933594C.11783854 .70947268 .15494792 .721639 .18945313 .7298584 .22395833 .7380778 .25553385 .7421875 .2841797 .7421875 .35970054 .7421875 .41992188 .7233073 .46484376 .6855469 .5097656 .64778646 .53222659 .59733077 .53222659 .5341797 .53222659 .50423178 .5266113 .47583009 .51538088 .4489746 .5041504 .42211915 .48372398 .39046226 .45410157 .3540039 .44596354 .3445638 .42008464 .31730143 .37646485 .2722168 .33284507 .22713216 .27132163 .1640625 .19189453 .08300781Z"/>
<path id="font_27_12" d="M.09814453 .7294922H.19677735V.4211731L.5239258 .7294922H.6508789L.2890625 .38941957 .6767578 0H.546875L.19677735 .3513031V0H.09814453V.7294922Z"/>
<path id="font_27_8" d="M.3779297 .64346316 .12890625 .25390626H.3779297V.64346316M.35205079 .7294922H.47607423V.25390626H.5800781V.171875H.47607423V0H.3779297V.171875H.048828126V.26716615L.35205079 .7294922Z"/>
<path id="font_27_11" d="M.3178711 .34570313C.2709961 .34570313 .23413086 .33317057 .20727539 .30810548 .18041992 .28304038 .16699219 .24853516 .16699219 .20458985 .16699219 .16064453 .18041992 .12613933 .20727539 .10107422 .23413086 .07600912 .2709961 .06347656 .3178711 .06347656 .3647461 .06347656 .40169273 .07609049 .42871095 .10131836 .45572917 .12654622 .46923829 .16097005 .46923829 .20458985 .46923829 .24853516 .45581056 .28304038 .42895509 .30810548 .4020996 .33317057 .36507163 .34570313 .3178711 .34570313M.21923828 .3879547C.17692058 .39838157 .1439616 .41808573 .12036133 .44706727 .09676107 .47605897 .08496094 .5114034 .08496094 .5531006 .08496094 .6114095 .10571289 .6575012 .1472168 .69137576 .1887207 .72525027 .24560547 .7421875 .3178711 .7421875 .39046226 .7421875 .44742839 .72525027 .48876954 .69137576 .53011068 .6575012 .55078127 .6114095 .55078127 .5531006 .55078127 .5114034 .53898116 .47605897 .51538088 .44706727 .4917806 .41808573 .45898438 .39838157 .4169922 .3879547 .46451823 .37687684 .5015462 .35521446 .5280762 .32296754 .55460616 .2907206 .5678711 .25130717 .5678711 .20472718 .5678711 .13404846 .54630538 .07981364 .5031738 .042022706 .46004234 .0042419435 .39827476-.0146484379 .3178711-.0146484379 .23746746-.0146484379 .17569988 .0042419435 .13256836 .042022706 .08943685 .07981364 .067871097 .13404846 .067871097 .20472718 .067871097 .25130717 .081217449 .2907206 .107910159 .32296754 .13460286 .35521446 .17171224 .37687684 .21923828 .3879547M.18310547 .5439453C.18310547 .5061849 .1949056 .47672526 .21850586 .4555664 .24210613 .43440757 .27522788 .42382813 .3178711 .42382813 .3601888 .42382813 .39331056 .43440757 .41723634 .4555664 .4411621 .47672526 .453125 .5061849 .453125 .5439453 .453125 .58170577 .4411621 .61116537 .41723634 .6323242 .39331056 .6534831 .3601888 .6640625 .3178711 .6640625 .27522788 .6640625 .24210613 .6534831 .21850586 .6323242 .1949056 .61116537 .18310547 .58170577 .18310547 .5439453Z"/>
<path id="font_28_6" d="M.091796878 .7294922H.4038086C.49658204 .7294922 .56778976 .70888265 .61743167 .6676636 .66707357 .6264445 .69189456 .5677083 .69189456 .49145509 .69189456 .4148763 .66707357 .3559774 .61743167 .3147583 .56778976 .27353923 .49658204 .2529297 .4038086 .2529297H.27978517V0H.091796878V.7294922M.27978517 .59277346V.38964845H.38378907C.4202474 .38964845 .44840495 .39849855 .46826173 .41619874 .4881185 .43389894 .49804688 .45898438 .49804688 .49145509 .49804688 .5239258 .4881185 .54892989 .46826173 .5664673 .44840495 .5840047 .4202474 .59277346 .38378907 .59277346H.27978517Z"/>
<path id="font_28_16" d="M.49023438 .39746095C.4749349 .40478517 .4597168 .41019694 .44458009 .4136963 .42944337 .41719566 .41422526 .4189453 .39892579 .4189453 .3540039 .4189453 .31941734 .4045156 .29516603 .37565614 .2709147 .34679667 .25878907 .3054606 .25878907 .25164796V0H.083984378V.546875H.25878907V.45703126C.28125 .49301148 .30704753 .5192566 .33618165 .5357666 .36531578 .5522868 .40022788 .5605469 .44091798 .5605469 .44677735 .5605469 .453125 .56029257 .45996095 .55978396 .46679688 .55928549 .47672526 .55819198 .4897461 .5565033L.49023438 .39746095Z"/>
<path id="font_28_9" d="M.6298828 .2756195V.22558594H.2211914C.22542317 .1842448 .24023438 .15323894 .265625 .13256836 .29101563 .11189779 .3264974 .1015625 .3720703 .1015625 .40885417 .1015625 .4465332 .107055667 .48510743 .11804199 .52368167 .12902832 .5633138 .14567058 .6040039 .16796875V.033203126C.5626628 .017415366 .5213216 .005493164 .47998048-.0025634766 .4386393-.010620117 .3972982-.0146484379 .35595704-.0146484379 .2569987-.0146484379 .1800944 .010538737 .12524414 .060913087 .07039388 .11129761 .04296875 .18197632 .04296875 .27294923 .04296875 .36229453 .0699056 .43256126 .1237793 .4837494 .177653 .5349477 .25179038 .5605469 .3461914 .5605469 .4321289 .5605469 .5008952 .5346883 .55249026 .4829712 .60408529 .43125407 .6298828 .36213685 .6298828 .2756195M.4501953 .33398438C.4501953 .36704508 .44051109 .39370219 .42114259 .4139557 .40177409 .4342092 .37646485 .44433595 .34521485 .44433595 .3113607 .44433595 .28385417 .43485514 .2626953 .41589356 .24153646 .39693199 .22835286 .3696289 .22314453 .33398438H.4501953Z"/>
<path id="font_28_10" d="M.44384767 .7597656V.64453127H.34716798C.32242839 .64453127 .30517579 .6400757 .29541017 .63116458 .28564454 .6222636 .28076173 .60680136 .28076173 .58477786V.546875H.43017579V.421875H.28076173V0H.10595703V.421875H.019042969V.546875H.10595703V.58477786C.10595703 .6444092 .122558597 .6884816 .15576172 .71699526 .18896485 .74550887 .24039714 .7597656 .3100586 .7597656H.44384767Z"/>
<path id="font_28_13" d="M.083984378 .546875H.25878907V0H.083984378V.546875M.083984378 .7597656H.25878907V.6171875H.083984378V.7597656Z"/>
<path id="font_28_14" d="M.083984378 .7597656H.25878907V0H.083984378V.7597656Z"/>
<path id="font_28_3" d="M0 0Z"/>
<path id="font_28_4" d="M.091796878 .7294922H.27978517V.14257813H.6098633V0H.091796878V.7294922Z"/>
<path id="font_28_15" d="M.63378909 .33338929V0H.4580078V.054260255 .25517274C.4580078 .3024241 .45694987 .3350118 .45483399 .3529358 .4527181 .37085978 .449056 .38405863 .44384767 .39253236 .43701173 .40394593 .42773438 .41282655 .41601563 .4191742 .40429688 .425532 .39095054 .42871095 .37597657 .42871095 .33951823 .42871095 .3108724 .4146169 .29003907 .38642884 .26920573 .35824076 .25878907 .31921388 .25878907 .26934815V0H.083984378V.546875H.25878907V.46679688C.28515626 .4988607 .31315104 .52250167 .34277345 .5377197 .37239585 .5529378 .4051107 .5605469 .44091798 .5605469 .50406906 .5605469 .55200198 .5411682 .5847168 .5024109 .61743167 .46365357 .63378909 .40731303 .63378909 .33338929Z"/>
<path id="font_28_11" d="M.4560547 .09277344C.43196617 .060872396 .4054362 .037434896 .37646485 .022460938 .3474935 .007486979 .31396485 0 .2758789 0 .20914714 0 .15397136 .026306153 .11035156 .07891846 .06673177 .13154094 .044921876 .19857788 .044921876 .2800293 .044921876 .36180625 .06673177 .4288381 .11035156 .48112489 .15397136 .5334218 .20914714 .5595703 .2758789 .5595703 .31396485 .5595703 .3474935 .55204269 .37646485 .5369873 .4054362 .52194216 .43196617 .49821983 .4560547 .4658203V.546875H.63183596V.05517578C.63183596-.032714845 .60408529-.099853519 .548584-.14624024 .49308268-.19262696 .41259767-.21582031 .3071289-.21582031 .27294923-.21582031 .23990886-.21317546 .20800781-.20788574 .17610677-.20259603 .14404297-.1944987 .111816409-.18359375V-.046875C.14241536-.06461588 .17236328-.07784017 .20166016-.08654785 .23095703-.09525553 .26041667-.099609378 .29003907-.099609378 .34733073-.099609378 .3893229-.08711243 .41601563-.06211853 .44270835-.037134809 .4560547 .0019632977 .4560547 .05517578V.09277344M.3408203 .43359376C.3046875 .43359376 .27652995 .42022706 .25634767 .39349366 .23616536 .36676026 .22607422 .3289388 .22607422 .2800293 .22607422 .2298177 .23583985 .19175212 .2553711 .16583252 .27490235 .13991292 .3033854 .12695313 .3408203 .12695313 .37727867 .12695313 .40559898 .14031983 .42578126 .16705323 .44596354 .19378662 .4560547 .23144531 .4560547 .2800293 .4560547 .3289388 .44596354 .36676026 .42578126 .39349366 .40559898 .42022706 .37727867 .43359376 .3408203 .43359376Z"/>
<path id="font_28_17" d="M.27490235 .70214846V.546875H.45507813V.421875H.27490235V.1899414C.27490235 .16455078 .2799479 .14737956 .29003907 .13842774 .30013023 .1294759 .32014976 .125 .35009767 .125H.4399414V0H.29003907C.22102864 0 .17211914 .014404297 .14331055 .04321289 .11450195 .072021488 .100097659 .12093099 .100097659 .1899414V.421875H.013183594V.546875H.100097659V.70214846H.27490235Z"/>
<path id="font_28_12" d="M.63378909 .33338929V0H.4580078V.054260255 .25419618C.4580078 .3020986 .45694987 .3350118 .45483399 .3529358 .4527181 .37085978 .449056 .38405863 .44384767 .39253236 .43701173 .40394593 .42773438 .41282655 .41601563 .4191742 .40429688 .425532 .39095054 .42871095 .37597657 .42871095 .33951823 .42871095 .3108724 .4146169 .29003907 .38642884 .26920573 .35824076 .25878907 .31921388 .25878907 .26934815V0H.083984378V.7597656H.25878907V.46679688C.28515626 .4988607 .31315104 .52250167 .34277345 .5377197 .37239585 .5529378 .4051107 .5605469 .44091798 .5605469 .50406906 .5605469 .55200198 .5411682 .5847168 .5024109 .61743167 .46365357 .63378909 .40731303 .63378909 .33338929Z"/>
<clipPath id="clip_29">
<path transform="matrix(1,0,0,-1,0,340.59425)" d="M94.85625 57.10625H541.2562V278.86625H94.85625Z"/>
</clipPath>
<path id="font_27_5" d="M.3178711 .6640625C.26708985 .6640625 .22892253 .6390584 .20336914 .5890503 .17781575 .5390422 .16503906 .4638672 .16503906 .3635254 .16503906 .26350913 .17781575 .1884969 .20336914 .13848877 .22892253 .08848063 .26708985 .06347656 .3178711 .06347656 .36897788 .06347656 .40730796 .08848063 .43286134 .13848877 .4584147 .1884969 .4711914 .26350913 .4711914 .3635254 .4711914 .4638672 .4584147 .5390422 .43286134 .5890503 .40730796 .6390584 .36897788 .6640625 .3178711 .6640625M.3178711 .7421875C.3995768 .7421875 .46199546 .7098592 .50512698 .64520266 .5482585 .5805461 .5698242 .48665367 .5698242 .3635254 .5698242 .24072266 .5482585 .146993 .50512698 .082336429 .46199546 .01767985 .3995768-.0146484379 .3178711-.0146484379 .23616536-.0146484379 .17374675 .01767985 .13061524 .082336429 .08748373 .146993 .06591797 .24072266 .06591797 .3635254 .06591797 .48665367 .08748373 .5805461 .13061524 .64520266 .17374675 .7098592 .23616536 .7421875 .3178711 .7421875Z"/>
<path id="font_27_4" d="M.106933597 .12402344H.20996094V0H.106933597V.12402344Z"/>
<clipPath id="clip_30">
<path transform="matrix(1,0,0,-1,0,340.59425)" d="M94.85625 57.10625H541.2562V278.86625H94.85625Z"/>
</clipPath>
<path id="font_27_9" d="M.107910159 .7294922H.4951172V.6464844H.19824219V.46777345C.21256511 .47265626 .22688802 .47631837 .24121094 .47875978 .25553385 .48120118 .26985679 .48242188 .2841797 .48242188 .3655599 .48242188 .43001304 .4600779 .47753907 .41539 .5250651 .37071229 .5488281 .31021119 .5488281 .23388672 .5488281 .15528362 .52441409 .09420776 .47558595 .05065918 .4267578 .007120768 .35791017-.0146484379 .26904298-.0146484379 .23844402-.0146484379 .20727539-.0120442709 .17553711-.0068359377 .14379883-.0016276041 .1110026 .006184896 .07714844 .016601563V.11621094C.10644531 .100097659 .13671875 .08809408 .16796875 .080200199 .19921875 .07230631 .23225911 .068359378 .26708985 .068359378 .32340495 .068359378 .3680013 .083211269 .4008789 .11291504 .4337565 .14262899 .4501953 .18295288 .4501953 .23388672 .4501953 .28482057 .4337565 .32513938 .4008789 .35484315 .3680013 .3845571 .32340495 .39941407 .26708985 .39941407 .24072266 .39941407 .21443685 .39648438 .18823242 .390625 .162028 .38476563 .1352539 .37565104 .107910159 .36328126V.7294922Z"/>
<clipPath id="clip_31">
<path transform="matrix(1,0,0,-1,0,340.59425)" d="M94.85625 57.10625H541.2562V278.86625H94.85625Z"/>
</clipPath>
<clipPath id="clip_32">
<path transform="matrix(1,0,0,-1,0,340.59425)" d="M94.85625 57.10625H541.2562V278.86625H94.85625Z"/>
</clipPath>
<path id="font_27_10" d="M.08203125 .7294922H.55078127V.6874695L.2861328 0H.18310547L.4321289 .6464844H.08203125V.7294922Z"/>
<clipPath id="clip_33">
<path transform="matrix(1,0,0,-1,0,340.59425)" d="M94.85625 57.10625H541.2562V278.86625H94.85625Z"/>
</clipPath>
<path id="font_27_6" d="M.12402344 .08300781H.28515626V.63964846L.10986328 .6044922V.69433596L.2841797 .7294922H.3828125V.08300781H.5439453V0H.12402344V.08300781Z"/>
<clipPath id="clip_34">
<path transform="matrix(1,0,0,-1,0,340.59425)" d="M94.85625 57.10625H541.2562V278.86625H94.85625Z"/>
</clipPath>
<clipPath id="clip_35">
<path transform="matrix(1,0,0,-1,0,340.59425)" d="M94.85625 57.10625H541.2562V278.86625H94.85625Z"/>
</clipPath>
<path id="font_28_5" d="M.4248047 .60546877C.36751304 .60546877 .32307945 .58433029 .2915039 .5420532 .25992839 .4997762 .24414063 .44026695 .24414063 .3635254 .24414063 .28710938 .25992839 .22776287 .2915039 .18548584 .32307945 .14320882 .36751304 .12207031 .4248047 .12207031 .48242188 .12207031 .52701827 .14320882 .55859377 .18548584 .59016928 .22776287 .60595706 .28710938 .60595706 .3635254 .60595706 .44026695 .59016928 .4997762 .55859377 .5420532 .52701827 .58433029 .48242188 .60546877 .4248047 .60546877M.4248047 .7421875C.5419922 .7421875 .63378909 .7086334 .7001953 .64152529 .76660159 .5744273 .7998047 .48176066 .7998047 .3635254 .7998047 .24561565 .76660159 .15310669 .7001953 .085998538 .63378909 .018900553 .5419922-.0146484379 .4248047-.0146484379 .30794273-.0146484379 .21622722 .018900553 .1496582 .085998538 .083089198 .15310669 .049804689 .24561565 .049804689 .3635254 .049804689 .48176066 .083089198 .5744273 .1496582 .64152529 .21622722 .7086334 .30794273 .7421875 .4248047 .7421875Z"/>
<path id="font_28_18" d="M.015136719 .546875H.1899414L.32617188 .16894531 .46191407 .546875H.63720706L.421875 0H.22998047L.015136719 .546875Z"/>
<path id="font_28_7" d="M.32910157 .24511719C.29264323 .24511719 .2652181 .23895264 .24682617 .22662354 .22843425 .21429444 .21923828 .1961263 .21923828 .17211914 .21923828 .15006511 .22664388 .13279216 .24145508 .12030029 .25626628 .10780843 .27685548 .1015625 .30322267 .1015625 .33610026 .1015625 .36376954 .11332194 .38623048 .13684082 .4086914 .1603597 .41992188 .189799 .41992188 .22515869V.24511719H.32910157M.5961914 .31134034V0H.41992188V.08105469C.39648438 .04767863 .3701172 .023381552 .3408203 .008163452 .31152345-.007044474 .2758789-.0146484379 .23388672-.0146484379 .1772461-.0146484379 .13126628 .0018717448 .095947269 .03491211 .060628255 .06795248 .04296875 .110839847 .04296875 .16357422 .04296875 .22770183 .06502279 .2747396 .10913086 .3046875 .15323894 .3346354 .22249349 .34960938 .31689454 .34960938H.41992188V.3635559C.41992188 .39146934 .40901695 .411911 .38720704 .42488099 .36539714 .43785096 .33138023 .44433595 .28515626 .44433595 .24772136 .44433595 .21289063 .44059245 .18066406 .43310548 .1484375 .4256185 .118489589 .41438804 .09082031 .39941407V.5332031C.1282552 .54215499 .16585286 .5489502 .20361328 .55358889 .2413737 .55822756 .27913413 .5605469 .31689454 .5605469 .41552735 .5605469 .48673503 .54100546 .5305176 .5019226 .5743001 .46283976 .5961914 .39931236 .5961914 .31134034Z"/>
<path id="font_28_8" d="M.4560547 .46679688V.7597656H.63183596V0H.4560547V.07910156C.43196617 .04670207 .4054362 .02297465 .37646485 .0079193119 .3474935-.0071258547 .31396485-.0146484379 .2758789-.0146484379 .2084961-.0146484379 .15315755 .012171428 .10986328 .06581116 .06656901 .11945089 .044921876 .1884969 .044921876 .27294923 .044921876 .35740153 .06656901 .42644755 .10986328 .48008729 .15315755 .533727 .2084961 .5605469 .2758789 .5605469 .3136393 .5605469 .34708659 .5529378 .3762207 .5377197 .40535484 .52250167 .43196617 .4988607 .4560547 .46679688M.3408203 .11230469C.37825523 .11230469 .40681968 .12601726 .42651368 .15344239 .44620768 .18086751 .4560547 .22070313 .4560547 .27294923 .4560547 .3251953 .44620768 .3650309 .42651368 .39245606 .40681968 .4198812 .37825523 .43359376 .3408203 .43359376 .30371095 .43359376 .27530924 .4198812 .25561524 .39245606 .23592122 .3650309 .22607422 .3251953 .22607422 .27294923 .22607422 .22070313 .23592122 .18086751 .25561524 .15344239 .27530924 .12601726 .30371095 .11230469 .3408203 .11230469Z"/>
<clipPath id="clip_36">
<path transform="matrix(1,0,0,-1,0,340.59425)" d="M85.29531 305.55989H133.29532V322.35987H85.29531Z"/>
</clipPath>
<clipPath id="clip_37">
<path transform="matrix(1,0,0,-1,0,340.59425)" d="M246.29219 305.55989H294.29219V322.35987H246.29219Z"/>
</clipPath>
<clipPath id="clip_38">
<path transform="matrix(1,0,0,-1,0,340.59425)" d="M422.5547 305.55989H470.5547V322.35987H422.5547Z"/>
</clipPath>
</defs>
<path transform="matrix(1,0,0,-1,0,340.59425)" d="M0 0H567.6172V340.59425H0Z" fill="#ffffff"/>
<path transform="matrix(1,0,0,-1,0,340.59425)" d="M94.85625 57.10625H541.2562V278.86625H94.85625Z" fill="#ffffff"/>
<g clip-path="url(#clip_0)">
<g>
<g clip-path="url(#clip_1)">
<rect transform="matrix(1,0,0,-1,0,0)" fill="url(#pattern_2)" x="105.147159" y="-293.48799" width="51.21678" height="211.45279"/>
</g>
<path transform="matrix(1,0,0,-1,0,340.59425)" stroke-width="1" stroke-linecap="butt" stroke-miterlimit="10" stroke-linejoin="miter" fill="none" stroke="#000000" stroke-opacity=".7" d="M115.147159 57.10625H146.36394V248.55905H115.147159Z"/>
</g>
</g>
<g clip-path="url(#clip_3)">
<g>
<g clip-path="url(#clip_4)">
<rect transform="matrix(1,0,0,-1,0,0)" fill="url(#pattern_5)" x="261.23109" y="-293.48799" width="51.216768" height="217.07071"/>
</g>
<path transform="matrix(1,0,0,-1,0,340.59425)" stroke-width="1" stroke-linecap="butt" stroke-miterlimit="10" stroke-linejoin="miter" fill="none" stroke="#000000" stroke-opacity=".7" d="M271.23109 57.10625H302.44786V254.17697H271.23109Z"/>
</g>
</g>
<g clip-path="url(#clip_6)">
<g>
<g clip-path="url(#clip_7)">
<rect transform="matrix(1,0,0,-1,0,0)" fill="url(#pattern_8)" x="417.315" y="-293.48799" width="51.216768" height="208.2003"/>
</g>
<path transform="matrix(1,0,0,-1,0,340.59425)" stroke-width="1" stroke-linecap="butt" stroke-miterlimit="10" stroke-linejoin="miter" fill="none" stroke="#000000" stroke-opacity=".7" d="M427.315 57.10625H458.53178V245.30657H427.315Z"/>
</g>
</g>
<g clip-path="url(#clip_9)">
<g>
<g clip-path="url(#clip_10)">
<rect transform="matrix(1,0,0,-1,0,0)" fill="url(#pattern_11)" x="136.36394" y="-293.48799" width="51.21678" height="197.99935"/>
</g>
<path transform="matrix(1,0,0,-1,0,340.59425)" stroke-width="1" stroke-linecap="butt" stroke-miterlimit="10" stroke-linejoin="miter" fill="none" stroke="#000000" stroke-opacity=".7" d="M146.36394 57.10625H177.58072V235.1056H146.36394Z"/>
</g>
</g>
<g clip-path="url(#clip_12)">
<g>
<g clip-path="url(#clip_13)">
<rect transform="matrix(1,0,0,-1,0,0)" fill="url(#pattern_14)" x="292.44786" y="-293.48799" width="51.216798" height="200.95615"/>
</g>
<path transform="matrix(1,0,0,-1,0,340.59425)" stroke-width="1" stroke-linecap="butt" stroke-miterlimit="10" stroke-linejoin="miter" fill="none" stroke="#000000" stroke-opacity=".7" d="M302.44786 57.10625H333.66465V238.06241H302.44786Z"/>
</g>
</g>
<g clip-path="url(#clip_15)">
<g>
<g clip-path="url(#clip_16)">
<rect transform="matrix(1,0,0,-1,0,0)" fill="url(#pattern_17)" x="448.53178" y="-293.48799" width="51.216798" height="194.1555"/>
</g>
<path transform="matrix(1,0,0,-1,0,340.59425)" stroke-width="1" stroke-linecap="butt" stroke-miterlimit="10" stroke-linejoin="miter" fill="none" stroke="#000000" stroke-opacity=".7" d="M458.53178 57.10625H489.74858V231.26177H458.53178Z"/>
</g>
</g>
<g clip-path="url(#clip_18)">
<g>
<g clip-path="url(#clip_19)">
<rect transform="matrix(1,0,0,-1,0,0)" fill="url(#pattern_20)" x="167.58072" y="-293.48799" width="51.216798" height="166.95294"/>
</g>
<path transform="matrix(1,0,0,-1,0,340.59425)" stroke-width="1" stroke-linecap="butt" stroke-miterlimit="10" stroke-linejoin="miter" fill="none" stroke="#000000" stroke-opacity=".7" d="M177.58072 57.10625H208.79752V204.0592H177.58072Z"/>
</g>
</g>
<g clip-path="url(#clip_21)">
<g>
<g clip-path="url(#clip_22)">
<rect transform="matrix(1,0,0,-1,0,0)" fill="url(#pattern_23)" x="323.66465" y="-293.48799" width="51.216798" height="169.31839"/>
</g>
<path transform="matrix(1,0,0,-1,0,340.59425)" stroke-width="1" stroke-linecap="butt" stroke-miterlimit="10" stroke-linejoin="miter" fill="none" stroke="#000000" stroke-opacity=".7" d="M333.66465 57.10625H364.88145V206.42465H333.66465Z"/>
</g>
</g>
<g clip-path="url(#clip_24)">
<g>
<g clip-path="url(#clip_25)">
<rect transform="matrix(1,0,0,-1,0,0)" fill="url(#pattern_26)" x="479.74858" y="-293.48799" width="51.216768" height="162.51775"/>
</g>
<path transform="matrix(1,0,0,-1,0,340.59425)" stroke-width="1" stroke-linecap="butt" stroke-miterlimit="10" stroke-linejoin="miter" fill="none" stroke="#000000" stroke-opacity=".7" d="M489.74858 57.10625H520.96536V199.62401H489.74858Z"/>
</g>
</g>
<path transform="matrix(1,0,0,-1,0,340.59425)" d="M161.97234 57.10625V53.60625"/>
<path transform="matrix(1,0,0,-1,0,340.59425)" stroke-width=".8" stroke-linecap="butt" stroke-linejoin="round" fill="none" stroke="#000000" d="M161.97234 57.10625V53.60625"/>
<use data-text="2" xlink:href="#font_27_7" transform="matrix(16,0,0,-16,151.62859,302.64424)"/>
<use data-text="K" xlink:href="#font_27_12" transform="matrix(16,0,0,-16,161.80458,302.64424)"/>
<path transform="matrix(1,0,0,-1,0,340.59425)" d="M318.05625 57.10625V53.60625"/>
<path transform="matrix(1,0,0,-1,0,340.59425)" stroke-width=".8" stroke-linecap="butt" stroke-linejoin="round" fill="none" stroke="#000000" d="M318.05625 57.10625V53.60625"/>
<use data-text="4" xlink:href="#font_27_8" transform="matrix(16,0,0,-16,307.7125,302.64424)"/>
<use data-text="K" xlink:href="#font_27_12" transform="matrix(16,0,0,-16,317.8885,302.64424)"/>
<path transform="matrix(1,0,0,-1,0,340.59425)" d="M474.14018 57.10625V53.60625"/>
<path transform="matrix(1,0,0,-1,0,340.59425)" stroke-width=".8" stroke-linecap="butt" stroke-linejoin="round" fill="none" stroke="#000000" d="M474.14018 57.10625V53.60625"/>
<use data-text="8" xlink:href="#font_27_11" transform="matrix(16,0,0,-16,463.79643,302.64424)"/>
<use data-text="K" xlink:href="#font_27_12" transform="matrix(16,0,0,-16,473.9724,302.64424)"/>
<use data-text="P" xlink:href="#font_28_6" transform="matrix(24,0,0,-24,226.23593,328.20674)"/>
<use data-text="r" xlink:href="#font_28_16" transform="matrix(24,0,0,-24,243.82793,328.20674)"/>
<use data-text="e" xlink:href="#font_28_9" transform="matrix(24,0,0,-24,255.65993,328.20674)"/>
<use data-text="f" xlink:href="#font_28_10" transform="matrix(24,0,0,-24,271.93196,328.20674)"/>
<use data-text="i" xlink:href="#font_28_13" transform="matrix(24,0,0,-24,282.37196,328.20674)"/>
<use data-text="l" xlink:href="#font_28_14" transform="matrix(24,0,0,-24,290.60395,328.20674)"/>
<use data-text="l" xlink:href="#font_28_14" transform="matrix(24,0,0,-24,298.83595,328.20674)"/>
<use data-text=" " xlink:href="#font_28_3" transform="matrix(24,0,0,-24,307.06794,328.20674)"/>
<use data-text="L" xlink:href="#font_28_4" transform="matrix(24,0,0,-24,315.41993,328.20674)"/>
<use data-text="e" xlink:href="#font_28_9" transform="matrix(24,0,0,-24,330.70796,328.20674)"/>
<use data-text="n" xlink:href="#font_28_15" transform="matrix(24,0,0,-24,346.97996,328.20674)"/>
<use data-text="g" xlink:href="#font_28_11" transform="matrix(24,0,0,-24,364.06794,328.20674)"/>
<use data-text="t" xlink:href="#font_28_17" transform="matrix(24,0,0,-24,381.25196,328.20674)"/>
<use data-text="h" xlink:href="#font_28_12" transform="matrix(24,0,0,-24,392.72395,328.20674)"/>
<g clip-path="url(#clip_29)">
<path transform="matrix(1,0,0,-1,0,340.59425)" stroke-width=".8" stroke-linecap="square" stroke-linejoin="round" fill="none" stroke="#b0b0b0" d="M94.85625 57.10625H541.2562"/>
</g>
<path transform="matrix(1,0,0,-1,0,340.59425)" d="M94.85625 57.10625H91.35625"/>
<path transform="matrix(1,0,0,-1,0,340.59425)" stroke-width=".8" stroke-linecap="butt" stroke-linejoin="round" fill="none" stroke="#000000" d="M94.85625 57.10625H91.35625"/>
<use data-text="0" xlink:href="#font_27_5" transform="matrix(24,0,0,-24,34.434377,292.60517)"/>
<use data-text="." xlink:href="#font_27_4" transform="matrix(24,0,0,-24,49.698377,292.60517)"/>
<use data-text="0" xlink:href="#font_27_5" transform="matrix(24,0,0,-24,57.330377,292.60517)"/>
<use data-text="0" xlink:href="#font_27_5" transform="matrix(24,0,0,-24,72.594379,292.60517)"/>
<g clip-path="url(#clip_30)">
<path transform="matrix(1,0,0,-1,0,340.59425)" stroke-width=".8" stroke-linecap="square" stroke-linejoin="round" fill="none" stroke="#b0b0b0" d="M94.85625 94.06625H541.2562"/>
</g>
<path transform="matrix(1,0,0,-1,0,340.59425)" d="M94.85625 94.06625H91.35625"/>
<path transform="matrix(1,0,0,-1,0,340.59425)" stroke-width=".8" stroke-linecap="butt" stroke-linejoin="round" fill="none" stroke="#000000" d="M94.85625 94.06625H91.35625"/>
<use data-text="0" xlink:href="#font_27_5" transform="matrix(24,0,0,-24,34.434377,255.64517)"/>
<use data-text="." xlink:href="#font_27_4" transform="matrix(24,0,0,-24,49.698377,255.64517)"/>
<use data-text="2" xlink:href="#font_27_7" transform="matrix(24,0,0,-24,57.330377,255.64517)"/>
<use data-text="5" xlink:href="#font_27_9" transform="matrix(24,0,0,-24,72.594379,255.64517)"/>
<g clip-path="url(#clip_31)">
<path transform="matrix(1,0,0,-1,0,340.59425)" stroke-width=".8" stroke-linecap="square" stroke-linejoin="round" fill="none" stroke="#b0b0b0" d="M94.85625 131.02625H541.2562"/>
</g>
<path transform="matrix(1,0,0,-1,0,340.59425)" d="M94.85625 131.02625H91.35625"/>
<path transform="matrix(1,0,0,-1,0,340.59425)" stroke-width=".8" stroke-linecap="butt" stroke-linejoin="round" fill="none" stroke="#000000" d="M94.85625 131.02625H91.35625"/>
<use data-text="0" xlink:href="#font_27_5" transform="matrix(24,0,0,-24,34.434377,218.68518)"/>
<use data-text="." xlink:href="#font_27_4" transform="matrix(24,0,0,-24,49.698377,218.68518)"/>
<use data-text="5" xlink:href="#font_27_9" transform="matrix(24,0,0,-24,57.330377,218.68518)"/>
<use data-text="0" xlink:href="#font_27_5" transform="matrix(24,0,0,-24,72.594379,218.68518)"/>
<g clip-path="url(#clip_32)">
<path transform="matrix(1,0,0,-1,0,340.59425)" stroke-width=".8" stroke-linecap="square" stroke-linejoin="round" fill="none" stroke="#b0b0b0" d="M94.85625 167.98625H541.2562"/>
</g>
<path transform="matrix(1,0,0,-1,0,340.59425)" d="M94.85625 167.98625H91.35625"/>
<path transform="matrix(1,0,0,-1,0,340.59425)" stroke-width=".8" stroke-linecap="butt" stroke-linejoin="round" fill="none" stroke="#000000" d="M94.85625 167.98625H91.35625"/>
<use data-text="0" xlink:href="#font_27_5" transform="matrix(24,0,0,-24,34.434377,181.72518)"/>
<use data-text="." xlink:href="#font_27_4" transform="matrix(24,0,0,-24,49.698377,181.72518)"/>
<use data-text="7" xlink:href="#font_27_10" transform="matrix(24,0,0,-24,57.330377,181.72518)"/>
<use data-text="5" xlink:href="#font_27_9" transform="matrix(24,0,0,-24,72.594379,181.72518)"/>
<g clip-path="url(#clip_33)">
<path transform="matrix(1,0,0,-1,0,340.59425)" stroke-width=".8" stroke-linecap="square" stroke-linejoin="round" fill="none" stroke="#b0b0b0" d="M94.85625 204.94625H541.2562"/>
</g>
<path transform="matrix(1,0,0,-1,0,340.59425)" d="M94.85625 204.94625H91.35625"/>
<path transform="matrix(1,0,0,-1,0,340.59425)" stroke-width=".8" stroke-linecap="butt" stroke-linejoin="round" fill="none" stroke="#000000" d="M94.85625 204.94625H91.35625"/>
<use data-text="1" xlink:href="#font_27_6" transform="matrix(24,0,0,-24,34.434377,144.76519)"/>
<use data-text="." xlink:href="#font_27_4" transform="matrix(24,0,0,-24,49.698377,144.76519)"/>
<use data-text="0" xlink:href="#font_27_5" transform="matrix(24,0,0,-24,57.330377,144.76519)"/>
<use data-text="0" xlink:href="#font_27_5" transform="matrix(24,0,0,-24,72.594379,144.76519)"/>
<g clip-path="url(#clip_34)">
<path transform="matrix(1,0,0,-1,0,340.59425)" stroke-width=".8" stroke-linecap="square" stroke-linejoin="round" fill="none" stroke="#b0b0b0" d="M94.85625 241.90625H541.2562"/>
</g>
<path transform="matrix(1,0,0,-1,0,340.59425)" d="M94.85625 241.90625H91.35625"/>
<path transform="matrix(1,0,0,-1,0,340.59425)" stroke-width=".8" stroke-linecap="butt" stroke-linejoin="round" fill="none" stroke="#000000" d="M94.85625 241.90625H91.35625"/>
<use data-text="1" xlink:href="#font_27_6" transform="matrix(24,0,0,-24,34.434377,107.805179)"/>
<use data-text="." xlink:href="#font_27_4" transform="matrix(24,0,0,-24,49.698377,107.805179)"/>
<use data-text="2" xlink:href="#font_27_7" transform="matrix(24,0,0,-24,57.330377,107.805179)"/>
<use data-text="5" xlink:href="#font_27_9" transform="matrix(24,0,0,-24,72.594379,107.805179)"/>
<g clip-path="url(#clip_35)">
<path transform="matrix(1,0,0,-1,0,340.59425)" stroke-width=".8" stroke-linecap="square" stroke-linejoin="round" fill="none" stroke="#b0b0b0" d="M94.85625 278.86625H541.2562"/>
</g>
<path transform="matrix(1,0,0,-1,0,340.59425)" d="M94.85625 278.86625H91.35625"/>
<path transform="matrix(1,0,0,-1,0,340.59425)" stroke-width=".8" stroke-linecap="butt" stroke-linejoin="round" fill="none" stroke="#000000" d="M94.85625 278.86625H91.35625"/>
<use data-text="1" xlink:href="#font_27_6" transform="matrix(24,0,0,-24,34.434377,70.845188)"/>
<use data-text="." xlink:href="#font_27_4" transform="matrix(24,0,0,-24,49.698377,70.845188)"/>
<use data-text="5" xlink:href="#font_27_9" transform="matrix(24,0,0,-24,57.330377,70.845188)"/>
<use data-text="0" xlink:href="#font_27_5" transform="matrix(24,0,0,-24,72.594379,70.845188)"/>
<use data-text="O" xlink:href="#font_28_5" transform="matrix(0,-24,-24,-0,25.434376,238.07674)"/>
<use data-text="v" xlink:href="#font_28_18" transform="matrix(0,-24,-24,-0,25.434376,217.67673)"/>
<use data-text="e" xlink:href="#font_28_9" transform="matrix(0,-24,-24,-0,25.434376,202.02873)"/>
<use data-text="r" xlink:href="#font_28_16" transform="matrix(0,-24,-24,-0,25.434376,185.75673)"/>
<use data-text="h" xlink:href="#font_28_12" transform="matrix(0,-24,-24,-0,25.434376,173.92473)"/>
<use data-text="e" xlink:href="#font_28_9" transform="matrix(0,-24,-24,-0,25.434376,156.83673)"/>
<use data-text="a" xlink:href="#font_28_7" transform="matrix(0,-24,-24,-0,25.434376,140.56473)"/>
<use data-text="d" xlink:href="#font_28_8" transform="matrix(0,-24,-24,-0,25.434376,124.36473)"/>
<path transform="matrix(1,0,0,-1,0,340.59425)" stroke-width=".8" stroke-linecap="square" stroke-miterlimit="10" stroke-linejoin="miter" fill="none" stroke="#000000" d="M94.85625 57.10625V278.86625"/>
<path transform="matrix(1,0,0,-1,0,340.59425)" stroke-width=".8" stroke-linecap="square" stroke-miterlimit="10" stroke-linejoin="miter" fill="none" stroke="#000000" d="M541.2562 57.10625V278.86625"/>
<path transform="matrix(1,0,0,-1,0,340.59425)" stroke-width=".8" stroke-linecap="square" stroke-miterlimit="10" stroke-linejoin="miter" fill="none" stroke="#000000" d="M94.85625 57.10625H541.2562"/>
<path transform="matrix(1,0,0,-1,0,340.59425)" stroke-width=".8" stroke-linecap="square" stroke-miterlimit="10" stroke-linejoin="miter" fill="none" stroke="#000000" d="M94.85625 278.86625H541.2562"/>
<g>
<path transform="matrix(1,0,0,-1,0,340.59425)" d="M80.495319 290.95988H555.6172C558.8172 290.95988 560.4172 292.55989 560.4172 295.7599V328.59425C560.4172 331.79426 558.8172 333.39427 555.6172 333.39427H80.495319C77.29531 333.39427 75.69531 331.79426 75.69531 328.59425V295.7599C75.69531 292.55989 77.29531 290.95988 80.495319 290.95988Z" fill="#ffffff" fill-opacity=".8"/>
<path transform="matrix(1,0,0,-1,0,340.59425)" stroke-width="1" stroke-linecap="butt" stroke-miterlimit="10" stroke-linejoin="miter" fill="none" stroke="#cccccc" stroke-opacity=".8" d="M80.495319 290.95988H555.6172C558.8172 290.95988 560.4172 292.55989 560.4172 295.7599V328.59425C560.4172 331.79426 558.8172 333.39427 555.6172 333.39427H80.495319C77.29531 333.39427 75.69531 331.79426 75.69531 328.59425V295.7599C75.69531 292.55989 77.29531 290.95988 80.495319 290.95988Z"/>
</g>
<g>
<g clip-path="url(#clip_36)">
<path transform="matrix(1,0,0,-1,72,72)" d="M0 0H72V72H0Z" fill="#d2691e" fill-opacity=".7"/>
<g>
<path transform="matrix(1,0,0,-1,72,72)" d="M-36 36 36-36M-30 42 42-30M-24 48 48-24M-18 54 54-18M-12 60 60-12M-6 66 66-6M0 72 72 0M6 78 78 6M12 84 84 12M18 90 90 18M24 96 96 24M30 102 102 30M36 108 108 36" fill="#d2691e" fill-opacity=".7"/>
<path transform="matrix(1,0,0,-1,72,72)" stroke-width="1" stroke-linecap="butt" stroke-miterlimit="10" stroke-linejoin="miter" fill="none" stroke="#000000" stroke-opacity=".7" d="M-36 36 36-36M-30 42 42-30M-24 48 48-24M-18 54 54-18M-12 60 60-12M-6 66 66-6M0 72 72 0M6 78 78 6M12 84 84 12M18 90 90 18M24 96 96 24M30 102 102 30M36 108 108 36"/>
</g>
</g>
<path transform="matrix(1,0,0,-1,0,340.59425)" stroke-width="1" stroke-linecap="butt" stroke-miterlimit="10" stroke-linejoin="miter" fill="none" stroke="#000000" stroke-opacity=".7" d="M85.29531 305.55989H133.29532V322.35987H85.29531Z"/>
</g>
<use data-text="5" xlink:href="#font_27_9" transform="matrix(24,0,0,-24,152.49532,35.034364)"/>
<use data-text="1" xlink:href="#font_27_6" transform="matrix(24,0,0,-24,167.75933,35.034364)"/>
<use data-text="2" xlink:href="#font_27_7" transform="matrix(24,0,0,-24,183.02332,35.034364)"/>
<g>
<g clip-path="url(#clip_37)">
<path transform="matrix(1,0,0,-1,216,72)" d="M0 0H72V72H0Z" fill="#5f9ea0" fill-opacity=".7"/>
<g>
<path transform="matrix(1,0,0,-1,216,72)" d="M0 6H72M0 18H72M0 30H72M0 42H72M0 54H72M0 66H72" fill="#5f9ea0" fill-opacity=".7"/>
<path transform="matrix(1,0,0,-1,216,72)" stroke-width="1" stroke-linecap="butt" stroke-miterlimit="10" stroke-linejoin="miter" fill="none" stroke="#000000" stroke-opacity=".7" d="M0 6H72M0 18H72M0 30H72M0 42H72M0 54H72M0 66H72"/>
</g>
<path transform="matrix(1,0,0,-1,288,72)" d="M0 0H72V72H0Z" fill="#5f9ea0" fill-opacity=".7"/>
<g>
<path transform="matrix(1,0,0,-1,288,72)" d="M0 6H72M0 18H72M0 30H72M0 42H72M0 54H72M0 66H72" fill="#5f9ea0" fill-opacity=".7"/>
<path transform="matrix(1,0,0,-1,288,72)" stroke-width="1" stroke-linecap="butt" stroke-miterlimit="10" stroke-linejoin="miter" fill="none" stroke="#000000" stroke-opacity=".7" d="M0 6H72M0 18H72M0 30H72M0 42H72M0 54H72M0 66H72"/>
</g>
</g>
<path transform="matrix(1,0,0,-1,0,340.59425)" stroke-width="1" stroke-linecap="butt" stroke-miterlimit="10" stroke-linejoin="miter" fill="none" stroke="#000000" stroke-opacity=".7" d="M246.29219 305.55989H294.29219V322.35987H246.29219Z"/>
</g>
<use data-text="1" xlink:href="#font_27_6" transform="matrix(24,0,0,-24,313.4922,35.034364)"/>
<use data-text="0" xlink:href="#font_27_5" transform="matrix(24,0,0,-24,328.7562,35.034364)"/>
<use data-text="2" xlink:href="#font_27_7" transform="matrix(24,0,0,-24,344.0202,35.034364)"/>
<use data-text="4" xlink:href="#font_27_8" transform="matrix(24,0,0,-24,359.28419,35.034364)"/>
<g>
<g clip-path="url(#clip_38)">
<path transform="matrix(1,0,0,-1,360,72)" d="M0 0H72V72H0Z" fill="#f5deb3" fill-opacity=".7"/>
<g>
<path transform="matrix(1,0,0,-1,360,72)" d="M-36 36 36 108M-30 30 42 102M-24 24 48 96M-18 18 54 90M-12 12 60 84M-6 6 66 78M0 0 72 72M6-6 78 66M12-12 84 60M18-18 90 54M24-24 96 48M30-30 102 42M36-36 108 36" fill="#f5deb3" fill-opacity=".7"/>
<path transform="matrix(1,0,0,-1,360,72)" stroke-width="1" stroke-linecap="butt" stroke-miterlimit="10" stroke-linejoin="miter" fill="none" stroke="#000000" stroke-opacity=".7" d="M-36 36 36 108M-30 30 42 102M-24 24 48 96M-18 18 54 90M-12 12 60 84M-6 6 66 78M0 0 72 72M6-6 78 66M12-12 84 60M18-18 90 54M24-24 96 48M30-30 102 42M36-36 108 36"/>
</g>
<path transform="matrix(1,0,0,-1,432,72)" d="M0 0H72V72H0Z" fill="#f5deb3" fill-opacity=".7"/>
<g>
<path transform="matrix(1,0,0,-1,432,72)" d="M-36 36 36 108M-30 30 42 102M-24 24 48 96M-18 18 54 90M-12 12 60 84M-6 6 66 78M0 0 72 72M6-6 78 66M12-12 84 60M18-18 90 54M24-24 96 48M30-30 102 42M36-36 108 36" fill="#f5deb3" fill-opacity=".7"/>
<path transform="matrix(1,0,0,-1,432,72)" stroke-width="1" stroke-linecap="butt" stroke-miterlimit="10" stroke-linejoin="miter" fill="none" stroke="#000000" stroke-opacity=".7" d="M-36 36 36 108M-30 30 42 102M-24 24 48 96M-18 18 54 90M-12 12 60 84M-6 6 66 78M0 0 72 72M6-6 78 66M12-12 84 60M18-18 90 54M24-24 96 48M30-30 102 42M36-36 108 36"/>
</g>
</g>
<path transform="matrix(1,0,0,-1,0,340.59425)" stroke-width="1" stroke-linecap="butt" stroke-miterlimit="10" stroke-linejoin="miter" fill="none" stroke="#000000" stroke-opacity=".7" d="M422.5547 305.55989H470.5547V322.35987H422.5547Z"/>
</g>
<use data-text="2" xlink:href="#font_27_7" transform="matrix(24,0,0,-24,489.7547,35.034364)"/>
<use data-text="0" xlink:href="#font_27_5" transform="matrix(24,0,0,-24,505.0187,35.034364)"/>
<use data-text="4" xlink:href="#font_27_8" transform="matrix(24,0,0,-24,520.2827,35.034364)"/>
<use data-text="8" xlink:href="#font_27_11" transform="matrix(24,0,0,-24,535.5467,35.034364)"/>
</svg>
